<svg xmlns="http://www.w3.org/2000/svg" width="400" height="241.333" viewBox="0 0 300 181" preserveAspectRatio="xMidYMid meet" xmlns:v="https://vecta.io/nano"><path d="M205.8 30.2c-9.6 12.3-22.6 29.4-28.8 38-6.3 8.7-11.7 15.7-12 15.7s-6.3-8.3-13.5-18.4c-11.4-16.2-13.3-18.4-15.7-18.5-1.6 0-2.8.3-2.8.6s6.3 9.4 14.1 20.1L161.3 88c.1.4-6.7 10.2-15 21.8-8.4 11.5-15.3 21.2-15.3 21.6 0 .3 1.2.6 2.8.6 2.4-.1 4.4-2.5 16.7-19.5 7.7-10.7 14.3-19.5 14.6-19.5s6.8 8.8 14.5 19.5c12.4 17.3 14.2 19.4 16.8 19.5 2 0 2.7-.4 2.3-1.4-.3-.8-7.1-10.4-15.1-21.5L169 88.4c0-.5 32.8-48.4 50.8-74.2 8.3-11.9 3.2-6.1-14 16zM0 89.5V132h2.5H5V93.5c0-21.2.3-38.5.8-38.5.4.1 12 16.6 25.7 36.8 21.9 32.1 54.9 77.9 59.3 82.2.8.8-17.8-27.4-41.4-62.7C7.5 48.5 6.4 47.1 3.3 47H0v42.5zm71 0V132h28.5H128v-2.5-2.5h-26-26v-18.5V90h24c23.3 0 24-.1 24-2s-.7-2-24-2H76V69 52h25.5H127v-2.5V47H99 71v42.5zm131-40V52h15 15v40 40h2.5 2.5V92 52h15.1c15 0 15 0 14.7-2.3l-.3-2.2-32.2-.3L202 47v2.5zm77.7 58.2c-.4.3-.7 3.9-.7 8 0 6.6-.2 7.3-1.9 7.3-1.1 0-2.3-.5-2.6-1-.8-1.3-3.5-1.3-3.5-.1 0 1.9 3.2 4.1 5.9 4.1 4.3 0 5.1-1.6 5.1-10.7 0-7.6-.5-9.4-2.3-7.6zm9.1.5c-4.1 3.4-2.1 8.1 4.2 9.8 4.4 1.2 5.2 3.3 2 5-1.6.8-2.7.7-5-.7-3.7-2.1-5.3-.8-2.1 1.8 4.9 4 12.7 1.2 11.9-4.2-.3-2.2-2-3.4-8-5.8-1.9-.7-2.6-1.5-2.2-2.6.7-1.7 5.5-2 7.1-.4.6.6 1.7.9 2.4.7.9-.3.6-1.1-.9-2.6-2.4-2.4-7-2.9-9.4-1zm-24.4 14.9c-1 1.7 1.3 3.6 2.7 2.2 1.2-1.2.4-3.3-1.1-3.3-.5 0-1.2.5-1.6 1.1z"/></svg>